<svg id="Layer_1" enable-background="new 0 0 512 512" height="512" viewBox="0 0 512 512" width="512" xmlns="http://www.w3.org/2000/svg"><g><g clip-rule="evenodd" fill-rule="evenodd"><path d="m310.999 156h-119.999c-22 0-40 18-40 40v120c0 22 18 40 40 40h120c22 0 40-18 40-40v-120c-.001-22-18-40-40.001-40z" fill="#cff5fd"/><path d="m191 156h120c22 0 40 18 40 40v120c0 22-18 40-40 40h-120c-22 0-40-18-40-40v-120c0-22 18-40 40-40zm119.999-40h-119.999c-3.385 0-6.723.213-10 .627-39.326 4.96-70 38.758-70 79.373v120c0 40.615 30.674 74.414 70 79.374 3.277.413 6.615.626 10 .626h120c3.385 0 6.723-.213 10-.626 39.326-4.96 70-38.758 70-79.374v-120c0-40.615-30.674-74.414-70-79.373-3.278-.414-6.616-.627-10.001-.627z" fill="#6d91ac"/><g fill="#d1a184"><path d="m191 116h120c3.385 0 6.723.213 10 .628v-86.628c0-10.999-9-20-20-20h-100c-11 0-20 9-20 20v86.627c3.277-.414 6.615-.627 10-.627z"/><path d="m310.999 396h-119.999c-3.385 0-6.723-.213-10-.628v86.628c0 11 9 20 20 20h100c11 0 20-9 20-20v-86.627c-3.278.414-6.616.627-10.001.627z"/></g></g><g><path d="m401 236v-40c0-42.754-29.968-78.638-70-87.757v-78.243c0-16.542-13.458-30-30-30h-100c-16.542 0-30 13.458-30 30v78.244c-40.032 9.119-70 45.003-70 87.757v120c0 42.754 29.968 78.638 70 87.757v78.242c0 16.542 13.458 30 30 30h100c16.542 0 30-13.458 30-30v-78.243c40.032-9.119 70-45.003 70-87.757v-40c5.523 0 10-4.477 10-10v-20c0-5.523-4.477-10-10-10zm-90 246c0 5.514-4.486 10-10 10h-100c-5.514 0-10-4.486-10-10v-76h120zm70-166c0 38.598-31.402 70-70 70h-120c-38.598 0-70-31.402-70-70v-120c0-38.598 31.402-70 70-70h14.996c5.523 0 10-4.477 10-10s-4.477-10-10-10h-14.996v-76c0-5.514 4.486-10 10-10h100c5.514 0 10 4.486 10 10v76h-15.003c-5.523 0-10 4.477-10 10s4.477 10 10 10h15.003c38.598 0 70 31.402 70 70z"/><path d="m290.998 246h-29.998v-49.999c0-5.523-4.477-10-10-10s-10 4.477-10 10v59.999c0 5.523 4.477 10 10 10h39.998c5.523 0 10-4.477 10-10s-4.477-10-10-10z"/><path d="m311 146h-120c-27.57 0-50 22.43-50 50v120c0 27.57 22.43 50 50 50h120c27.57 0 50-22.43 50-50v-120c0-27.57-22.43-50-50-50zm0 200h-50v-8.201c0-5.523-4.477-10-10-10s-10 4.477-10 10v8.201h-50c-16.542 0-30-13.458-30-30v-50h8.2c5.523 0 10-4.477 10-10s-4.477-10-10-10h-8.2v-50c0-16.542 13.458-30 30-30h120c16.542 0 30 13.458 30 30v50h-8.201c-5.523 0-10 4.477-10 10s4.477 10 10 10h8.201v50c0 16.542-13.458 30-30 30z"/><path d="m251 126c5.523 0 10-4.477 10-10s-4.477-10-10-10h-.007c-5.523 0-9.996 4.477-9.996 10s4.48 10 10.003 10z"/></g></g></svg>